<svg width="220" height="42" viewBox="0 0 220 42" fill="none" xmlns="http://www.w3.org/2000/svg">
<path d="M56.9648 30.4102C55.6159 30.4102 54.3581 30.1732 53.1914 29.6992C52.0247 29.207 50.9948 28.5326 50.1016 27.6758C49.2266 26.8008 48.543 25.7799 48.0508 24.6133C47.5586 23.4466 47.3125 22.1888 47.3125 20.8398C47.3125 19.4909 47.5586 18.2331 48.0508 17.0664C48.543 15.8997 49.2266 14.888 50.1016 14.0312C50.9948 13.1562 52.0247 12.4818 53.1914 12.0078C54.3581 11.5156 55.6159 11.2695 56.9648 11.2695C58.2227 11.2695 59.2708 11.4427 60.1094 11.7891C60.9661 12.1354 61.7135 12.5911 62.3516 13.1562V16.3281C61.9323 16.0182 61.4766 15.6992 60.9844 15.3711C60.4922 15.043 59.9271 14.7604 59.2891 14.5234C58.651 14.2682 57.8945 14.1406 57.0195 14.1406C55.7617 14.1406 54.6315 14.4323 53.6289 15.0156C52.6263 15.599 51.8333 16.401 51.25 17.4219C50.6667 18.4245 50.375 19.5638 50.375 20.8398C50.375 22.1159 50.6667 23.2552 51.25 24.2578C51.8333 25.2604 52.6263 26.0625 53.6289 26.6641C54.6315 27.2474 55.7617 27.5391 57.0195 27.5391C58.3503 27.5391 59.4805 27.3203 60.4102 26.8828C61.3398 26.4453 62.1328 25.9714 62.7891 25.4609V28.4141C62.151 28.9792 61.3307 29.4531 60.3281 29.8359C59.3438 30.2188 58.2227 30.4102 56.9648 30.4102ZM70.5558 30.4102C69.4256 30.4102 68.3774 30.1185 67.4112 29.5352C66.4633 28.9518 65.6977 28.1315 65.1144 27.0742C64.5493 25.9987 64.2667 24.7409 64.2667 23.3008C64.2667 21.7878 64.5493 20.4844 65.1144 19.3906C65.6977 18.2969 66.4816 17.4583 67.4659 16.875C68.4685 16.2734 69.5805 15.9727 70.8019 15.9727C71.5675 15.9727 72.3422 16.1549 73.1261 16.5195C73.9282 16.8841 74.6027 17.3763 75.1495 17.9961V16.2734H77.8839V30H75.1495V27.6758C74.712 28.4049 74.0922 29.043 73.2902 29.5898C72.5063 30.1367 71.5948 30.4102 70.5558 30.4102ZM71.13 27.7031C71.8774 27.7031 72.5519 27.5117 73.1534 27.1289C73.7732 26.7279 74.2654 26.181 74.63 25.4883C74.9946 24.7773 75.1678 23.9661 75.1495 23.0547V20.6758C74.6027 20.056 74.0193 19.5638 73.3995 19.1992C72.798 18.8346 72.1053 18.6523 71.3214 18.6523C70.4464 18.6523 69.6899 18.8711 69.0519 19.3086C68.4321 19.7461 67.949 20.3203 67.6027 21.0312C67.2745 21.7422 67.1105 22.4987 67.1105 23.3008C67.1105 24.1029 67.2745 24.8411 67.6027 25.5156C67.949 26.1901 68.423 26.7279 69.0245 27.1289C69.6261 27.5117 70.3279 27.7031 71.13 27.7031ZM81.2483 30V16.2734H83.9827V30H81.2483ZM83.9827 21.9609V18.9531C84.4931 18.0781 85.0946 17.3672 85.7873 16.8203C86.4983 16.2734 87.2548 16 88.0569 16C88.5855 16 89.0504 16.0911 89.4514 16.2734V19.3906C89.178 19.2266 88.8954 19.099 88.6037 19.0078C88.3121 18.9167 88.0022 18.8711 87.6741 18.8711C86.7991 18.8711 86.079 19.1719 85.5139 19.7734C84.967 20.375 84.4566 21.1042 83.9827 21.9609ZM101.895 30V11.6797H104.875V30H101.895ZM98.7505 30V27.293H108.02V30H98.7505ZM98.7505 14.3867V11.6797H108.02V14.3867H98.7505ZM121.283 30V21.9336C121.283 20.8398 121.037 20.0195 120.545 19.4727C120.052 18.9258 119.323 18.6523 118.357 18.6523C117.683 18.6523 117.017 18.8984 116.361 19.3906C115.723 19.8646 115.158 20.4206 114.666 21.0586V18.3516C114.957 17.987 115.322 17.6224 115.759 17.2578C116.197 16.8932 116.689 16.5924 117.236 16.3555C117.801 16.1003 118.393 15.9727 119.013 15.9727C119.943 15.9727 120.791 16.1823 121.556 16.6016C122.322 17.0026 122.923 17.6224 123.361 18.4609C123.817 19.2995 124.045 20.3477 124.045 21.6055V30H121.283ZM111.931 30V16.2734H114.666V30H111.931ZM130.526 30.4102C129.961 30.4102 129.387 30.3372 128.803 30.1914C128.22 30.0638 127.691 29.8997 127.217 29.6992C126.744 29.4987 126.37 29.3073 126.096 29.125V26.4727C126.388 26.6732 126.771 26.8919 127.245 27.1289C127.737 27.3477 128.247 27.5299 128.776 27.6758C129.305 27.8216 129.788 27.8945 130.225 27.8945C131.027 27.8945 131.647 27.7305 132.085 27.4023C132.54 27.0742 132.768 26.6458 132.768 26.1172C132.768 25.7161 132.604 25.4062 132.276 25.1875C131.948 24.9505 131.474 24.7227 130.854 24.5039L128.967 23.8203C127.91 23.4375 127.19 22.9362 126.807 22.3164C126.443 21.6966 126.26 20.9766 126.26 20.1562C126.26 19.3359 126.47 18.6159 126.889 17.9961C127.309 17.3763 127.892 16.8841 128.639 16.5195C129.405 16.1549 130.289 15.9727 131.292 15.9727C132.112 15.9727 132.878 16.0911 133.589 16.3281C134.3 16.5651 134.828 16.8203 135.175 17.0938V19.7734C134.773 19.4818 134.245 19.1992 133.589 18.9258C132.951 18.6523 132.285 18.5156 131.592 18.5156C130.809 18.5156 130.207 18.6979 129.788 19.0625C129.387 19.4089 129.186 19.7917 129.186 20.2109C129.186 20.5391 129.305 20.8581 129.542 21.168C129.779 21.4779 130.207 21.7331 130.827 21.9336L132.823 22.6445C133.789 22.9544 134.509 23.4102 134.983 24.0117C135.457 24.5951 135.694 25.306 135.694 26.1445C135.694 26.9284 135.466 27.6484 135.01 28.3047C134.555 28.9609 133.935 29.4805 133.151 29.8633C132.385 30.2279 131.51 30.4102 130.526 30.4102ZM143.406 30.3008C142.276 30.3008 141.255 30.0638 140.344 29.5898C139.45 29.1159 138.739 28.4414 138.211 27.5664C137.7 26.6914 137.445 25.6432 137.445 24.4219V16.2734H140.262V24.1758C140.262 25.306 140.571 26.1719 141.191 26.7734C141.811 27.3568 142.549 27.6484 143.406 27.6484C144.281 27.6484 145.028 27.3568 145.648 26.7734C146.268 26.1719 146.578 25.306 146.578 24.1758V16.2734H149.394V24.4219C149.394 25.6432 149.13 26.6914 148.601 27.5664C148.073 28.4414 147.362 29.1159 146.469 29.5898C145.575 30.0638 144.555 30.3008 143.406 30.3008ZM152.403 30V16.2734H155.138V30H152.403ZM155.138 21.9609V18.9531C155.648 18.0781 156.25 17.3672 156.942 16.8203C157.653 16.2734 158.41 16 159.212 16C159.741 16 160.205 16.0911 160.606 16.2734V19.3906C160.333 19.2266 160.05 19.099 159.759 19.0078C159.467 18.9167 159.157 18.8711 158.829 18.8711C157.954 18.8711 157.234 19.1719 156.669 19.7734C156.122 20.375 155.612 21.1042 155.138 21.9609ZM167.607 30.4102C166.477 30.4102 165.429 30.1185 164.463 29.5352C163.515 28.9518 162.749 28.1315 162.166 27.0742C161.601 25.9987 161.318 24.7409 161.318 23.3008C161.318 21.7878 161.601 20.4844 162.166 19.3906C162.749 18.2969 163.533 17.4583 164.518 16.875C165.52 16.2734 166.632 15.9727 167.854 15.9727C168.619 15.9727 169.394 16.1549 170.178 16.5195C170.98 16.8841 171.654 17.3763 172.201 17.9961V16.2734H174.936V30H172.201V27.6758C171.764 28.4049 171.144 29.043 170.342 29.5898C169.558 30.1367 168.647 30.4102 167.607 30.4102ZM168.182 27.7031C168.929 27.7031 169.604 27.5117 170.205 27.1289C170.825 26.7279 171.317 26.181 171.682 25.4883C172.046 24.7773 172.219 23.9661 172.201 23.0547V20.6758C171.654 20.056 171.071 19.5638 170.451 19.1992C169.85 18.8346 169.157 18.6523 168.373 18.6523C167.498 18.6523 166.742 18.8711 166.104 19.3086C165.484 19.7461 165.001 20.3203 164.654 21.0312C164.326 21.7422 164.162 22.4987 164.162 23.3008C164.162 24.1029 164.326 24.8411 164.654 25.5156C165.001 26.1901 165.475 26.7279 166.076 27.1289C166.678 27.5117 167.38 27.7031 168.182 27.7031ZM187.652 30V21.9336C187.652 20.8398 187.405 20.0195 186.913 19.4727C186.421 18.9258 185.692 18.6523 184.726 18.6523C184.051 18.6523 183.386 18.8984 182.73 19.3906C182.092 19.8646 181.527 20.4206 181.034 21.0586V18.3516C181.326 17.987 181.691 17.6224 182.128 17.2578C182.566 16.8932 183.058 16.5924 183.605 16.3555C184.17 16.1003 184.762 15.9727 185.382 15.9727C186.312 15.9727 187.159 16.1823 187.925 16.6016C188.691 17.0026 189.292 17.6224 189.73 18.4609C190.185 19.2995 190.413 20.3477 190.413 21.6055V30H187.652ZM178.3 30V16.2734H181.034V30H178.3ZM199.657 30.4102C198.617 30.4102 197.66 30.2279 196.785 29.8633C195.91 29.4805 195.145 28.9518 194.489 28.2773C193.851 27.6029 193.349 26.8372 192.985 25.9805C192.638 25.1055 192.465 24.1849 192.465 23.2188C192.465 22.2526 192.638 21.332 192.985 20.457C193.349 19.582 193.851 18.8164 194.489 18.1602C195.145 17.4857 195.91 16.957 196.785 16.5742C197.66 16.1732 198.617 15.9727 199.657 15.9727C200.659 15.9727 201.507 16.1367 202.2 16.4648C202.91 16.7747 203.421 17.0755 203.731 17.3672V19.9922C203.239 19.6276 202.673 19.3177 202.035 19.0625C201.416 18.7891 200.659 18.6523 199.766 18.6523C198.909 18.6523 198.144 18.862 197.469 19.2812C196.795 19.7005 196.266 20.2565 195.883 20.9492C195.519 21.6237 195.336 22.3802 195.336 23.2188C195.336 24.0391 195.519 24.7956 195.883 25.4883C196.248 26.181 196.767 26.737 197.442 27.1562C198.116 27.5573 198.891 27.7578 199.766 27.7578C200.659 27.7578 201.416 27.6302 202.035 27.375C202.673 27.1016 203.239 26.7826 203.731 26.418V29.043C203.421 29.3346 202.91 29.6354 202.2 29.9453C201.507 30.2552 200.659 30.4102 199.657 30.4102ZM212.345 30.4102C211.324 30.4102 210.367 30.2279 209.474 29.8633C208.599 29.4987 207.833 28.9883 207.177 28.332C206.521 27.6758 206.011 26.9193 205.646 26.0625C205.281 25.1875 205.099 24.2487 205.099 23.2461C205.099 21.9336 205.391 20.7305 205.974 19.6367C206.557 18.5247 207.359 17.6406 208.38 16.9844C209.401 16.3099 210.559 15.9727 211.853 15.9727C213.238 15.9727 214.405 16.2643 215.353 16.8477C216.301 17.431 217.012 18.2331 217.486 19.2539C217.978 20.2565 218.224 21.4049 218.224 22.6992V24.0938H207.642V21.9883H215.572C215.499 21.1862 215.271 20.5299 214.888 20.0195C214.524 19.5091 214.068 19.1263 213.521 18.8711C212.992 18.6159 212.427 18.4883 211.826 18.4883C211.024 18.4883 210.322 18.707 209.72 19.1445C209.137 19.5638 208.681 20.1289 208.353 20.8398C208.025 21.5508 207.861 22.3529 207.861 23.2461C207.861 24.0846 208.043 24.8503 208.408 25.543C208.79 26.2357 209.328 26.7917 210.021 27.2109C210.714 27.6302 211.507 27.8398 212.4 27.8398C213.402 27.8398 214.314 27.612 215.134 27.1562C215.973 26.6823 216.665 26.1901 217.212 25.6797V28.4141C216.939 28.7057 216.556 29.0065 216.064 29.3164C215.572 29.6263 215.007 29.8815 214.369 30.082C213.731 30.3008 213.056 30.4102 212.345 30.4102Z" fill="#4666CA"/>
<path d="M0 10.5231L19.3167 0V4.2L4.75 12.3692C4.75 25.1077 14.25 34.5692 19 37.8L19 42C7.05714 38.4923 0 21.1385 0 10.5231Z" fill="#4666CA"/>
<path d="M30.5359 6.18425L26.6907 4.09097V37.1182L30.5359 32.9317V6.18425Z" fill="#4666CA"/>
<path d="M38.0002 10.836L34.155 8.51011V25.4889C35.4217 23.4422 37.2463 14.8675 38.0002 10.836Z" fill="#4666CA"/>
<path d="M19.3169 0L23.1169 2.92804L22.4836 39.7232L19.0002 42L19.3169 0Z" fill="#4666CA"/>
</svg>
